<svg width="219" height="53" viewBox="0 0 219 53" fill="none" xmlns="http://www.w3.org/2000/svg">
<g clip-path="url(#clip0_624_14671)">
<path d="M35.6387 18.5418H31.7817V0.308594H35.6387V18.5418Z" fill="#333333"/>
<path d="M51.5294 18.543H48.0581V10.508C48.0581 8.88554 47.2095 8.03569 45.5896 8.03569C44.3554 8.03569 43.3526 8.5765 42.5812 9.58088V18.543H39.1099V5.33161H42.5812V7.03132C43.7383 5.64065 45.281 4.94531 47.2095 4.94531C48.5981 4.94531 49.678 5.33161 50.4494 6.1042C51.2208 6.8768 51.5294 7.88117 51.5294 9.19458V18.543Z" fill="#333333"/>
<path d="M59.2445 18.5423H55.7732V8.34402H53.6133V5.3309H55.7732V4.63557C55.7732 3.2449 56.1589 2.08601 57.0074 1.31341C57.856 0.386297 58.9359 0 60.2473 0C61.2501 0 62.0987 0.154519 62.7929 0.540816L62.0215 3.09038C61.713 2.8586 61.3273 2.78134 60.8644 2.78134C60.3244 2.78134 59.9388 2.93586 59.6302 3.2449C59.3216 3.55394 59.1673 4.01749 59.1673 4.63557V5.3309H61.8672V8.34402H59.1673V18.5423H59.2445ZM67.4213 18.5423H63.95V0.309038H67.4213V18.5423Z" fill="#333333"/>
<path d="M83.233 18.5434H79.7617V16.8437C78.6046 18.1571 77.0618 18.8524 75.1333 18.8524C73.7448 18.8524 72.6648 18.4661 71.9705 17.7708C71.2763 17.0754 70.8906 15.9938 70.8906 14.6804V5.33203H74.3619V13.367C74.3619 14.9894 75.2104 15.8393 76.8303 15.8393C78.0646 15.8393 79.0674 15.3757 79.8388 14.3714V5.33203H83.3101V18.5434H83.233Z" fill="#333333"/>
<path d="M92.8782 18.852C90.8726 18.852 89.1754 18.2339 87.7869 16.9205C86.4755 15.6071 85.7812 13.9847 85.7812 11.8987C85.7812 9.96718 86.3984 8.26747 87.7097 6.95406C89.0211 5.64065 90.6411 4.94531 92.6467 4.94531C94.6523 4.94531 96.1951 5.64065 97.4294 6.95406C98.6636 8.26747 99.2807 10.0444 99.2807 12.2077V12.9803H89.484C89.5611 13.8301 89.9468 14.6027 90.6411 15.1436C91.3353 15.7616 92.1839 15.9934 93.2638 15.9934C93.8809 15.9934 94.4981 15.8389 95.1923 15.6071C95.8866 15.3753 96.4265 15.0663 96.8122 14.68L98.355 16.9205C96.9665 18.2339 95.1924 18.852 92.8782 18.852ZM95.8867 10.6625C95.8095 9.88992 95.5009 9.27184 94.9609 8.65377C94.4209 8.03569 93.6495 7.72665 92.5696 7.72665C91.5667 7.72665 90.7953 8.03569 90.2554 8.65377C89.7154 9.27184 89.4069 9.88992 89.3298 10.6625H95.8867Z" fill="#333333"/>
<path d="M114.167 18.543H110.696V10.508C110.696 8.88554 109.847 8.03569 108.227 8.03569C106.993 8.03569 105.99 8.5765 105.219 9.58088V18.543H101.747V5.33161H105.219V7.03132C106.376 5.64065 107.919 4.94531 109.847 4.94531C111.236 4.94531 112.316 5.33161 113.087 6.1042C113.858 6.8768 114.167 7.88117 114.167 9.19458V18.543Z" fill="#333333"/>
<path d="M123.73 18.8529C121.725 18.8529 120.028 18.2349 118.716 16.9214C117.405 15.608 116.711 13.9856 116.711 11.8996C116.711 9.89079 117.405 8.19108 118.716 6.95493C120.028 5.64152 121.725 5.02344 123.73 5.02344C126.044 5.02344 127.819 5.79604 128.976 7.41849L126.739 9.58175C126.122 8.65464 125.196 8.19108 123.962 8.19108C122.882 8.19108 122.033 8.57738 121.416 9.27271C120.722 9.96805 120.413 10.8952 120.413 12.0541C120.413 13.213 120.722 14.1401 121.416 14.8354C122.11 15.5308 122.959 15.9171 123.962 15.9171C125.119 15.9171 126.044 15.4535 126.739 14.5264L128.976 16.6124C127.819 18.0803 126.122 18.8529 123.73 18.8529Z" fill="#333333"/>
<path d="M137.464 18.852C135.459 18.852 133.761 18.2339 132.373 16.9205C131.062 15.6071 130.367 13.9847 130.367 11.8987C130.367 9.96718 130.984 8.26747 132.296 6.95406C133.607 5.64065 135.227 4.94531 137.233 4.94531C139.238 4.94531 140.781 5.64065 142.015 6.95406C143.25 8.26747 143.867 10.0444 143.867 12.2077V12.9803H134.07C134.147 13.8301 134.533 14.6027 135.227 15.1436C135.921 15.7616 136.77 15.9934 137.85 15.9934C138.467 15.9934 139.084 15.8389 139.778 15.6071C140.473 15.3753 141.013 15.0663 141.398 14.68L142.941 16.9205C141.553 18.2339 139.778 18.852 137.464 18.852ZM140.473 10.6625C140.396 9.88992 140.087 9.27184 139.547 8.65377C139.007 8.03569 138.236 7.72665 137.156 7.72665C136.153 7.72665 135.381 8.03569 134.841 8.65377C134.301 9.27184 133.993 9.88992 133.916 10.6625H140.473Z" fill="#333333"/>
<path d="M149.808 18.543H146.336V5.33161H149.808V7.10858C150.27 6.4905 150.965 5.94968 151.659 5.56339C152.43 5.17709 153.202 4.94531 153.973 4.94531V8.34473C153.742 8.26747 153.433 8.26747 153.047 8.26747C152.43 8.26747 151.813 8.42199 151.196 8.73102C150.502 9.04006 150.039 9.3491 149.808 9.81266V18.543Z" fill="#333333"/>
<path d="M71.1231 42.2605H68.886V27.1949L62.7148 42.2605H61.712L55.5408 27.1949V42.2605H53.2266V24.0273H56.4665L62.0977 37.7795L67.8061 24.0273H71.0459V42.2605H71.1231Z" fill="#333333"/>
<path d="M85.5457 42.2626H83.4629V40.7947C82.3829 42.0308 80.9173 42.6489 79.0659 42.6489C77.8317 42.6489 76.7517 42.2626 75.8261 41.49C74.9004 40.7174 74.4375 39.6358 74.4375 38.3224C74.4375 36.9317 74.9004 35.8501 75.8261 35.0775C76.7517 34.3049 77.8317 33.9186 79.0659 33.9186C80.9173 33.9186 82.3829 34.5367 83.4629 35.6956V33.3005C83.4629 32.4507 83.1543 31.7553 82.5372 31.2145C81.9201 30.751 81.1487 30.4419 80.1459 30.4419C78.6031 30.4419 77.2146 31.06 76.1346 32.2961L75.2089 30.9055C76.5975 29.4375 78.3717 28.7422 80.4545 28.7422C81.9972 28.7422 83.2315 29.1285 84.1572 29.8238C85.0828 30.5192 85.5457 31.6781 85.5457 33.2233V42.2626ZM79.9145 41.1037C81.5344 41.1037 82.7686 40.5629 83.54 39.4813V37.009C82.7686 35.9273 81.5344 35.3865 79.9145 35.3865C78.9888 35.3865 78.2174 35.6183 77.6003 36.1591C76.9832 36.6999 76.6746 37.3953 76.6746 38.2451C76.6746 39.095 76.9832 39.7903 77.6003 40.3311C78.1403 40.8719 78.9117 41.1037 79.9145 41.1037Z" fill="#333333"/>
<path d="M91.7195 42.2595H89.6367V29.0482H91.7195V31.2114C92.9537 29.589 94.4193 28.8164 96.1164 28.8164V30.9024C95.885 30.8251 95.5764 30.8251 95.2679 30.8251C94.6508 30.8251 93.9565 31.0569 93.2623 31.4432C92.568 31.9068 92.028 32.3703 91.7195 32.9111V42.2595Z" fill="#333333"/>
<path d="M110.308 42.2605H107.685L102.903 36.3116L100.743 38.4748V42.2605H98.6602V24.0273H100.743V36.0798L107.685 29.0492H110.308L104.445 35.0754L110.308 42.2605Z" fill="#333333"/>
<path d="M118.641 42.5708C116.635 42.5708 115.093 41.9527 113.781 40.6393C112.547 39.3259 111.93 37.7034 111.93 35.6174C111.93 33.6859 112.547 32.0635 113.781 30.6728C115.016 29.3594 116.558 28.6641 118.41 28.6641C120.338 28.6641 121.881 29.3594 123.038 30.6728C124.195 31.9862 124.735 33.6859 124.735 35.7719V36.3128H114.013C114.09 37.6262 114.553 38.7078 115.401 39.5577C116.25 40.4075 117.407 40.8711 118.718 40.8711C120.338 40.8711 121.727 40.3303 122.807 39.1714L123.809 40.4848C122.498 41.8754 120.801 42.5708 118.641 42.5708ZM122.73 34.8448C122.73 33.6859 122.344 32.6816 121.572 31.7544C120.801 30.8273 119.721 30.3638 118.41 30.3638C117.098 30.3638 116.095 30.8273 115.324 31.6772C114.553 32.6043 114.167 33.6087 114.09 34.7676H122.73V34.8448Z" fill="#333333"/>
<path d="M131.369 42.5696C130.366 42.5696 129.672 42.3378 129.209 41.797C128.746 41.2562 128.438 40.4836 128.438 39.4792V30.8261H126.278V29.0492H128.438V25.418H130.521V29.0492H133.221V30.8261H130.521V39.0156C130.521 39.5564 130.598 39.9427 130.829 40.2518C131.061 40.5608 131.369 40.7153 131.832 40.7153C132.449 40.7153 132.912 40.5608 133.221 40.1745L133.838 41.7197C133.221 42.3378 132.449 42.5696 131.369 42.5696Z" fill="#333333"/>
<path d="M137.077 27.1173C136.692 27.1173 136.383 26.9628 136.152 26.731C135.843 26.4992 135.766 26.1129 135.766 25.7266C135.766 25.3403 135.92 25.0313 136.152 24.7222C136.46 24.4132 136.769 24.3359 137.077 24.3359C137.463 24.3359 137.772 24.4904 138.08 24.7222C138.389 25.0313 138.466 25.3403 138.466 25.7266C138.466 26.1129 138.312 26.4219 138.08 26.731C137.772 27.04 137.463 27.1173 137.077 27.1173ZM138.157 42.2601H136.075V29.0488H138.157V42.2601Z" fill="#333333"/>
<path d="M153.203 42.2626H151.12V33.6096C151.12 32.5279 150.889 31.6781 150.349 31.2145C149.809 30.751 149.114 30.5192 148.189 30.5192C147.417 30.5192 146.646 30.751 145.952 31.1373C145.257 31.5235 144.64 31.9871 144.254 32.6052V42.2626H142.172V29.0512H144.254V30.9827C144.794 30.3647 145.412 29.8238 146.337 29.4375C147.186 28.974 148.111 28.7422 148.96 28.7422C151.737 28.7422 153.203 30.1329 153.203 32.9915V42.2626Z" fill="#333333"/>
<path d="M162.61 47.5926C161.453 47.5926 160.45 47.4381 159.601 47.2063C158.753 46.8973 157.981 46.4337 157.287 45.6612L158.29 44.116C159.293 45.3521 160.758 45.8929 162.61 45.8929C163.844 45.8929 164.847 45.5839 165.618 44.8886C166.39 44.2705 166.852 43.2661 166.852 41.8754V40.0212C166.39 40.7165 165.695 41.2574 164.924 41.7209C164.153 42.1845 163.304 42.4163 162.378 42.4163C160.604 42.4163 159.216 41.7982 158.136 40.562C157.056 39.3259 156.516 37.6262 156.516 35.5402C156.516 33.4542 157.056 31.7544 158.136 30.5183C159.216 29.2821 160.604 28.6641 162.378 28.6641C164.153 28.6641 165.695 29.4367 166.775 30.9819V28.9731H168.858V41.7982C168.858 43.8069 168.241 45.2749 167.084 46.202C165.927 47.2063 164.384 47.5926 162.61 47.5926ZM162.918 40.6393C163.69 40.6393 164.461 40.4075 165.233 40.0212C166.004 39.6349 166.544 39.0941 166.852 38.476V32.6816C166.467 32.0635 165.927 31.5999 165.233 31.1364C164.538 30.7501 163.767 30.5183 162.918 30.5183C161.607 30.5183 160.604 30.9819 159.833 31.909C159.061 32.8361 158.676 34.0722 158.676 35.5402C158.676 37.0081 159.061 38.2442 159.833 39.1714C160.604 40.1757 161.607 40.6393 162.918 40.6393Z" fill="#333333"/>
<path d="M187.913 42.2605H186.293V33.6075H174.722V42.2605H173.179V24.0273H174.722V32.2168H186.293V24.0273H187.913V42.2605Z" fill="#333333"/>
<path d="M202.724 42.2621H201.336V40.3306C200.719 41.026 200.025 41.5668 199.176 41.9531C198.328 42.3394 197.479 42.5712 196.553 42.5712C195.165 42.5712 194.162 42.2621 193.468 41.5668C192.773 40.8715 192.465 39.7898 192.465 38.3219V29.0508H193.853V38.0129C193.853 39.249 194.162 40.0989 194.702 40.5624C195.242 41.026 196.013 41.2578 197.093 41.2578C197.942 41.2578 198.713 41.026 199.485 40.6397C200.256 40.2534 200.873 39.7126 201.336 39.0945V29.0508H202.724V42.2621Z" fill="#333333"/>
<path d="M208.51 42.2605H207.121V24.0273H208.51V31.2124C209.667 29.59 211.21 28.7401 213.138 28.7401C214.913 28.7401 216.301 29.3582 217.381 30.6716C218.461 31.985 219.001 33.6075 219.001 35.6935C219.001 37.7795 218.461 39.4792 217.381 40.7154C216.301 41.9515 214.835 42.5696 213.138 42.5696C212.213 42.5696 211.287 42.3378 210.516 41.8742C209.667 41.4107 209.05 40.8699 208.587 40.0973V42.2605H208.51ZM208.51 38.9384C208.896 39.6337 209.513 40.1745 210.284 40.6381C211.056 41.1017 211.904 41.3334 212.83 41.3334C214.295 41.3334 215.375 40.7926 216.224 39.711C217.073 38.6294 217.458 37.3159 217.458 35.6935C217.458 34.071 217.073 32.6804 216.224 31.5987C215.375 30.5171 214.295 29.9763 212.83 29.9763C211.981 29.9763 211.133 30.2081 210.284 30.6716C209.436 31.1352 208.896 31.676 208.433 32.3713V38.9384H208.51Z" fill="#333333"/>
<path d="M47.5193 24.8789H1.92969L24.6859 47.6704L47.5193 24.8789Z" fill="#C12559"/>
<path d="M2.00781 24.9531L24.6869 47.7447V24.9531H2.00781Z" fill="#32B776"/>
<path d="M24.683 2.08594V47.7462L2.00391 24.9547L24.683 2.08594Z" fill="#F14074"/>
</g>
<defs>
<clipPath id="clip0_624_14671">
<rect width="219" height="53" fill="white"/>
</clipPath>
</defs>
</svg>
